# xmcd
#
# Track frame offsets:
#	150
#	34617
#	88412
#	107980
#	136556
#	171525
#	179434
#
# Disc length: 2600 seconds
#
# Revision: 1
# Processed by: cddbd v1.5.2PL0 Copyright (c) Steve Scherf et al.
# Submitted via: audiograbber 1.83.01
#
DISCID=5d0a2607
DTITLE=Grateful Dead - 79-12-09 Kiel Auditorium, St Louis MO
DYEAR=1900
DGENRE=
TTITLE0=Space
TTITLE1=Black Peter
TTITLE2=I Need A Miracle
TTITLE3=Bertha
TTITLE4=Good Lovin'
TTITLE5="Encore Rap"
TTITLE6=Don't Ease Me In
EXTD=
EXTT0=
EXTT1=
EXTT2=
EXTT3=
EXTT4=
EXTT5=
EXTT6=
PLAYORDER=
